<svg width="2067" height="28" viewBox="0 0 2067 28" fill="none" xmlns="http://www.w3.org/2000/svg">
<path d="M20.3706 24H2.64092V27.4826H0.266406V21.4672H3.11582L11.5058 0.729785L19.8957 21.4672H22.7451V27.4826H20.3706V24ZM11.5058 6.84019L5.93357 21.4672H17.078L11.5058 6.84019ZM26.7002 1.83789H29.3913V11.3676L38.0978 1.83789H41.4221L31.8291 12.2224L41.897 24H38.5727L29.3913 13.2355V24H26.7002V1.83789ZM59.482 4.3707H47.2929V24H44.6018V1.83789H62.1731V24H59.482V4.3707ZM105.055 24H87.3257V27.4826H84.9511V21.4672H87.8006L96.1905 0.729785L104.58 21.4672H107.43V27.4826H105.055V24ZM96.1905 6.84019L90.6183 21.4672H101.763L96.1905 6.84019ZM111.385 1.83789H114.076V11.3676L122.783 1.83789H126.107L116.514 12.2224L126.582 24H123.257L114.076 13.2355V24H111.385V1.83789ZM144.167 4.3707H131.978V24H129.286V1.83789H146.858V24H144.167V4.3707ZM189.74 24H172.01V27.4826H169.636V21.4672H172.485L180.875 0.729785L189.265 21.4672H192.115V27.4826H189.74V24ZM180.875 6.84019L175.303 21.4672H186.447L180.875 6.84019ZM196.07 1.83789H198.761V11.3676L207.467 1.83789H210.792L201.199 12.2224L211.267 24H207.942L198.761 13.2355V24H196.07V1.83789ZM228.852 4.3707H216.662V24H213.971V1.83789H231.543V24H228.852V4.3707ZM274.425 24H256.695V27.4826H254.321V21.4672H257.17L265.56 0.729785L273.95 21.4672H276.799V27.4826H274.425V24ZM265.56 6.84019L259.988 21.4672H271.132L265.56 6.84019ZM280.754 1.83789H283.445V11.3676L292.152 1.83789H295.476L285.883 12.2224L295.951 24H292.627L283.445 13.2355V24H280.754V1.83789ZM313.536 4.3707H301.347V24H298.656V1.83789H316.227V24H313.536V4.3707ZM359.11 24H341.38V27.4826H339.005V21.4672H341.855L350.245 0.729785L358.635 21.4672H361.484V27.4826H359.11V24ZM350.245 6.84019L344.673 21.4672H355.817L350.245 6.84019ZM365.439 1.83789H368.13V11.3676L376.837 1.83789H380.161L370.568 12.2224L380.636 24H377.312L368.13 13.2355V24H365.439V1.83789ZM398.221 4.3707H386.032V24H383.341V1.83789H400.912V24H398.221V4.3707ZM443.794 24H426.065V27.4826H423.69V21.4672H426.539L434.929 0.729785L443.319 21.4672H446.169V27.4826H443.794V24ZM434.929 6.84019L429.357 21.4672H440.502L434.929 6.84019ZM450.124 1.83789H452.815V11.3676L461.522 1.83789H464.846L455.253 12.2224L465.321 24H461.996L452.815 13.2355V24H450.124V1.83789ZM482.906 4.3707H470.717V24H468.025V1.83789H485.597V24H482.906V4.3707ZM528.479 24H510.749V27.4826H508.375V21.4672H511.224L519.614 0.729785L528.004 21.4672H530.854V27.4826H528.479V24ZM519.614 6.84019L514.042 21.4672H525.186L519.614 6.84019ZM534.809 1.83789H537.5V11.3676L546.206 1.83789H549.531L539.938 12.2224L550.005 24H546.681L537.5 13.2355V24H534.809V1.83789ZM567.59 4.3707H555.401V24H552.71V1.83789H570.282V24H567.59V4.3707ZM613.164 24H595.434V27.4826H593.06V21.4672H595.909L604.299 0.729785L612.689 21.4672H615.538V27.4826H613.164V24ZM604.299 6.84019L598.727 21.4672H609.871L604.299 6.84019ZM619.493 1.83789H622.184V11.3676L630.891 1.83789H634.215L624.622 12.2224L634.69 24H631.366L622.184 13.2355V24H619.493V1.83789ZM652.275 4.3707H640.086V24H637.395V1.83789H654.966V24H652.275V4.3707ZM697.849 24H680.119V27.4826H677.744V21.4672H680.594L688.984 0.729785L697.374 21.4672H700.223V27.4826H697.849V24ZM688.984 6.84019L683.411 21.4672H694.556L688.984 6.84019ZM704.178 1.83789H706.869V11.3676L715.576 1.83789H718.9L709.307 12.2224L719.375 24H716.051L706.869 13.2355V24H704.178V1.83789ZM736.96 4.3707H724.771V24H722.08V1.83789H739.651V24H736.96V4.3707ZM782.533 24H764.804V27.4826H762.429V21.4672H765.278L773.668 0.729785L782.058 21.4672H784.908V27.4826H782.533V24ZM773.668 6.84019L768.096 21.4672H779.241L773.668 6.84019ZM788.863 1.83789H791.554V11.3676L800.26 1.83789H803.585L793.992 12.2224L804.06 24H800.735L791.554 13.2355V24H788.863V1.83789ZM821.645 4.3707H809.455V24H806.764V1.83789H824.336V24H821.645V4.3707ZM867.218 24H849.488V27.4826H847.114V21.4672H849.963L858.353 0.729785L866.743 21.4672H869.592V27.4826H867.218V24ZM858.353 6.84019L852.781 21.4672H863.925L858.353 6.84019ZM873.548 1.83789H876.239V11.3676L884.945 1.83789H888.269L878.676 12.2224L888.744 24H885.42L876.239 13.2355V24H873.548V1.83789ZM906.329 4.3707H894.14V24H891.449V1.83789H909.02V24H906.329V4.3707ZM951.903 24H934.173V27.4826H931.799V21.4672H934.648L943.038 0.729785L951.428 21.4672H954.277V27.4826H951.903V24ZM943.038 6.84019L937.466 21.4672H948.61L943.038 6.84019ZM958.232 1.83789H960.923V11.3676L969.63 1.83789H972.954L963.361 12.2224L973.429 24H970.105L960.923 13.2355V24H958.232V1.83789ZM991.014 4.3707H978.825V24H976.134V1.83789H993.705V24H991.014V4.3707ZM1036.59 24H1018.86V27.4826H1016.48V21.4672H1019.33L1027.72 0.729785L1036.11 21.4672H1038.96V27.4826H1036.59V24ZM1027.72 6.84019L1022.15 21.4672H1033.29L1027.72 6.84019ZM1042.92 1.83789H1045.61V11.3676L1054.31 1.83789H1057.64L1048.05 12.2224L1058.11 24H1054.79L1045.61 13.2355V24H1042.92V1.83789ZM1075.7 4.3707H1063.51V24H1060.82V1.83789H1078.39V24H1075.7V4.3707ZM1111.78 24H1094.05V27.4826H1091.68V21.4672H1094.53L1102.92 0.729785L1111.31 21.4672H1114.15V27.4826H1111.78V24ZM1102.92 6.84019L1097.34 21.4672H1108.49L1102.92 6.84019ZM1118.11 1.83789H1120.8V11.3676L1129.51 1.83789H1132.83L1123.24 12.2224L1133.31 24H1129.98L1120.8 13.2355V24H1118.11V1.83789ZM1150.89 4.3707H1138.7V24H1136.01V1.83789H1153.58V24H1150.89V4.3707ZM1196.46 24H1178.74V27.4826H1176.36V21.4672H1179.21L1187.6 0.729785L1195.99 21.4672H1198.84V27.4826H1196.46V24ZM1187.6 6.84019L1182.03 21.4672H1193.17L1187.6 6.84019ZM1202.79 1.83789H1205.49V11.3676L1214.19 1.83789H1217.52L1207.92 12.2224L1217.99 24H1214.67L1205.49 13.2355V24H1202.79V1.83789ZM1235.58 4.3707H1223.39V24H1220.7V1.83789H1238.27V24H1235.58V4.3707ZM1281.15 24H1263.42V27.4826H1261.05V21.4672H1263.89L1272.28 0.729785L1280.67 21.4672H1283.52V27.4826H1281.15V24ZM1272.28 6.84019L1266.71 21.4672H1277.86L1272.28 6.84019ZM1287.48 1.83789H1290.17V11.3676L1298.88 1.83789H1302.2L1292.61 12.2224L1302.68 24H1299.35L1290.17 13.2355V24H1287.48V1.83789ZM1320.26 4.3707H1308.07V24H1305.38V1.83789H1322.95V24H1320.26V4.3707ZM1356.34 24H1338.61V27.4826H1336.24V21.4672H1339.09L1347.48 0.729785L1355.87 21.4672H1358.72V27.4826H1356.34V24ZM1347.48 6.84019L1341.91 21.4672H1353.05L1347.48 6.84019ZM1362.67 1.83789H1365.36V11.3676L1374.07 1.83789H1377.39L1367.8 12.2224L1377.87 24H1374.54L1365.36 13.2355V24H1362.67V1.83789ZM1395.45 4.3707H1383.26V24H1380.57V1.83789H1398.15V24H1395.45V4.3707ZM1441.03 24H1423.3V27.4826H1420.92V21.4672H1423.77L1432.16 0.729785L1440.55 21.4672H1443.4V27.4826H1441.03V24ZM1432.16 6.84019L1426.59 21.4672H1437.73L1432.16 6.84019ZM1447.36 1.83789H1450.05V11.3676L1458.75 1.83789H1462.08L1452.49 12.2224L1462.55 24H1459.23L1450.05 13.2355V24H1447.36V1.83789ZM1480.14 4.3707H1467.95V24H1465.26V1.83789H1482.83V24H1480.14V4.3707ZM1525.71 24H1507.98V27.4826H1505.61V21.4672H1508.46L1516.85 0.729785L1525.24 21.4672H1528.09V27.4826H1525.71V24ZM1516.85 6.84019L1511.28 21.4672H1522.42L1516.85 6.84019ZM1532.04 1.83789H1534.73V11.3676L1543.44 1.83789H1546.76L1537.17 12.2224L1547.24 24H1543.91L1534.73 13.2355V24H1532.04V1.83789ZM1564.82 4.3707H1552.63V24H1549.94V1.83789H1567.51V24H1564.82V4.3707ZM1610.4 24H1592.67V27.4826H1590.29V21.4672H1593.14L1601.53 0.729785L1609.92 21.4672H1612.77V27.4826H1610.4V24ZM1601.53 6.84019L1595.96 21.4672H1607.1L1601.53 6.84019ZM1616.73 1.83789H1619.42V11.3676L1628.12 1.83789H1631.45L1621.86 12.2224L1631.92 24H1628.6L1619.42 13.2355V24H1616.73V1.83789ZM1649.51 4.3707H1637.32V24H1634.63V1.83789H1652.2V24H1649.51V4.3707ZM1695.08 24H1677.35V27.4826H1674.98V21.4672H1677.83L1686.22 0.729785L1694.61 21.4672H1697.46V27.4826H1695.08V24ZM1686.22 6.84019L1680.64 21.4672H1691.79L1686.22 6.84019ZM1701.41 1.83789H1704.1V11.3676L1712.81 1.83789H1716.13L1706.54 12.2224L1716.61 24H1713.28L1704.1 13.2355V24H1701.41V1.83789ZM1734.19 4.3707H1722V24H1719.31V1.83789H1736.88V24H1734.19V4.3707ZM1779.77 24H1762.04V27.4826H1759.66V21.4672H1762.51L1770.9 0.729785L1779.29 21.4672H1782.14V27.4826H1779.77V24ZM1770.9 6.84019L1765.33 21.4672H1776.47L1770.9 6.84019ZM1786.1 1.83789H1788.79V11.3676L1797.49 1.83789H1800.82L1791.22 12.2224L1801.29 24H1797.97L1788.79 13.2355V24H1786.1V1.83789ZM1818.88 4.3707H1806.69V24H1804V1.83789H1821.57V24H1818.88V4.3707ZM1854.96 24H1837.23V27.4826H1834.86V21.4672H1837.7L1846.09 0.729785L1854.48 21.4672H1857.33V27.4826H1854.96V24ZM1846.09 6.84019L1840.52 21.4672H1851.67L1846.09 6.84019ZM1861.29 1.83789H1863.98V11.3676L1872.69 1.83789H1876.01L1866.42 12.2224L1876.49 24H1873.16L1863.98 13.2355V24H1861.29V1.83789ZM1894.07 4.3707H1881.88V24H1879.19V1.83789H1896.76V24H1894.07V4.3707ZM1939.64 24H1921.91V27.4826H1919.54V21.4672H1922.39L1930.78 0.729785L1939.17 21.4672H1942.02V27.4826H1939.64V24ZM1930.78 6.84019L1925.21 21.4672H1936.35L1930.78 6.84019ZM1945.97 1.83789H1948.66V11.3676L1957.37 1.83789H1960.7L1951.1 12.2224L1961.17 24H1957.85L1948.66 13.2355V24H1945.97V1.83789ZM1978.76 4.3707H1966.57V24H1963.88V1.83789H1981.45V24H1978.76V4.3707ZM2024.33 24H2006.6V27.4826H2004.22V21.4672H2007.07L2015.46 0.729785L2023.85 21.4672H2026.7V27.4826H2024.33V24ZM2015.46 6.84019L2009.89 21.4672H2021.04L2015.46 6.84019ZM2030.66 1.83789H2033.35V11.3676L2042.06 1.83789H2045.38L2035.79 12.2224L2045.86 24H2042.53L2033.35 13.2355V24H2030.66V1.83789ZM2063.44 4.3707H2051.25V24H2048.56V1.83789H2066.13V24H2063.44V4.3707Z" fill="white"/>
</svg>
